<svg width="77" height="89" viewBox="0 0 77 89" fill="none" xmlns="http://www.w3.org/2000/svg">
<path id="Vector" fill-rule="evenodd" clip-rule="evenodd" d="M75.3882 46.5748C76.4202 47.6071 77 49.0071 77 50.4668C77 51.9265 76.4202 53.3264 75.3882 54.3587L42.3587 87.3882C41.3264 88.4202 39.9265 89 38.4668 89C37.0071 89 35.6071 88.4202 34.5748 87.3882L1.54529 54.3587C0.542525 53.3205 -0.0123383 51.9299 0.000204444 50.4866C0.0127472 49.0432 0.591704 47.6625 1.61236 46.6418C2.63301 45.6212 4.01371 45.0422 5.45708 45.0297C6.90046 45.0172 8.29101 45.572 9.32925 46.5748L32.9619 70.2074L32.9619 6.42743C32.9619 4.96744 33.5418 3.56724 34.5742 2.53486C35.6066 1.50249 37.0068 0.922513 38.4668 0.922513C39.9268 0.922513 41.327 1.50249 42.3593 2.53486C43.3917 3.56724 43.9717 4.96744 43.9717 6.42743L43.9717 70.2074L67.6043 46.5748C68.6366 45.5428 70.0366 44.963 71.4963 44.963C72.956 44.963 74.3559 45.5428 75.3882 46.5748Z" fill="white"/>
</svg>
