<svg version="1.1" id="Layer_1" xmlns="http://www.w3.org/2000/svg" xmlns:xlink="http://www.w3.org/1999/xlink" x="0px" y="0px"
	 width="100%" viewBox="0 0 512 512" enable-background="new 0 0 512 512" xml:space="preserve">
<path fill="#FFFFFF" opacity="1.000000" stroke="none" 
	d="
M225.000000,1.000000 
	C246.020889,1.000000 267.041779,1.000000 288.229431,1.368506 
	C289.068573,2.152229 289.698486,2.823990 290.419861,2.943558 
	C299.044922,4.373118 307.832458,5.117586 316.290070,7.205492 
	C339.417419,12.914854 361.543762,21.330462 382.401611,33.005638 
	C410.416809,48.687134 434.462036,69.191940 454.960663,93.691292 
	C469.675171,111.277634 481.762115,130.673950 491.054718,151.792206 
	C501.104462,174.631241 508.207306,198.209091 511.076080,223.032074 
	C511.159332,223.752548 512.334167,224.346863 513.000000,225.000000 
	C513.000000,246.020889 513.000000,267.041779 512.631470,288.229431 
	C511.847778,289.068573 511.176056,289.698456 511.056488,290.419861 
	C509.626923,299.044922 508.882446,307.832428 506.794525,316.290039 
	C501.085144,339.417419 492.669525,361.543823 480.994324,382.401703 
	C465.312775,410.416840 444.808044,434.462219 420.308594,454.960724 
	C402.722229,469.675049 383.326141,481.762360 362.207764,491.054840 
	C339.368683,501.104431 315.790802,508.207275 290.967834,511.076111 
	C290.247406,511.159363 289.653107,512.334167 289.000000,513.000000 
	C267.979095,513.000000 246.958206,513.000000 225.770538,512.631470 
	C224.931427,511.847778 224.301590,511.176056 223.580261,511.056488 
	C214.955200,509.626953 206.167633,508.882507 197.710022,506.794556 
	C174.582657,501.085144 152.456223,492.669586 131.598358,480.994324 
	C103.583199,465.312775 79.537796,444.808105 59.039337,420.308594 
	C44.324940,402.722198 32.237694,383.326080 22.945246,362.207703 
	C12.895645,339.368652 5.792654,315.790863 2.923928,290.967865 
	C2.840666,290.247437 1.665857,289.653107 0.999999,289.000000 
	C1.000000,267.979095 1.000000,246.958206 1.368505,225.770538 
	C2.152224,224.931412 2.823988,224.301575 2.943552,223.580200 
	C4.373104,214.955139 5.117557,206.167603 7.205471,197.709976 
	C12.914857,174.582626 21.330444,152.456223 33.005638,131.598373 
	C48.687145,103.583168 69.191956,79.537941 93.691330,59.039330 
	C111.277664,44.324852 130.673889,32.237774 151.792191,22.945286 
	C174.631241,12.895636 198.209061,5.792603 223.032074,2.923930 
	C223.752548,2.840669 224.346863,1.665860 225.000000,1.000000 
M227.008560,494.510071 
	C231.219315,495.006714 235.428299,495.912628 239.641113,495.930725 
	C260.378387,496.019928 281.067963,496.438599 301.645966,492.182037 
	C320.154968,488.353485 338.101105,483.156006 355.232239,475.268890 
	C372.714722,467.220032 389.006805,457.298035 404.326477,445.485260 
	C421.136749,432.523102 435.724854,417.511261 448.480530,400.788177 
	C460.406860,385.152435 469.885620,367.947174 477.700470,349.820251 
	C487.959412,326.024384 494.084839,301.126678 495.726196,275.446655 
	C496.964020,256.080505 496.645050,236.560593 493.116119,217.212494 
	C489.550690,197.664322 484.148254,178.769989 476.160065,160.594070 
	C465.526733,136.399551 451.113159,114.606796 433.435211,95.076210 
	C421.308807,81.678932 407.468872,70.118965 392.535522,59.838123 
	C371.297913,45.217136 348.365692,34.308613 323.668854,26.991899 
	C307.777374,22.283871 291.520538,18.912989 275.059784,18.234890 
	C254.199249,17.375540 233.322723,17.555628 212.558380,21.778166 
	C194.342392,25.482487 176.629837,30.501598 159.809479,38.159904 
	C142.034088,46.253033 125.391609,56.303112 109.831833,68.377007 
	C92.929169,81.492935 78.173599,96.559639 65.361145,113.453529 
	C53.286880,129.374100 43.702202,146.852585 35.870613,165.341309 
	C25.885622,188.913727 19.873827,213.484680 18.263996,238.842056 
	C17.034122,258.214508 17.393496,277.732666 20.896601,297.074677 
	C24.466513,316.785492 29.938795,335.867920 38.072807,354.121521 
	C48.680977,377.927368 62.928902,399.494354 80.412361,418.777985 
	C92.554932,432.170807 106.354507,443.788849 121.292076,454.060150 
	C142.661392,468.753937 165.603897,480.173859 190.660309,486.873688 
	C202.318588,489.990967 214.354919,491.694427 227.008560,494.510071 
z"/>
<path fill="red" opacity="0.000000" stroke="none" 
	d="
M224.531342,1.000000 
	C224.346863,1.665860 223.752548,2.840669 223.032074,2.923930 
	C198.209061,5.792603 174.631241,12.895636 151.792191,22.945286 
	C130.673889,32.237774 111.277664,44.324852 93.691330,59.039330 
	C69.191956,79.537941 48.687145,103.583168 33.005638,131.598373 
	C21.330444,152.456223 12.914857,174.582626 7.205471,197.709976 
	C5.117557,206.167603 4.373104,214.955139 2.943552,223.580200 
	C2.823988,224.301575 2.152224,224.931412 1.368505,225.301880 
	C1.000000,150.406296 1.000000,75.812576 1.000000,1.000000 
	C75.354088,1.000000 149.708389,1.000000 224.531342,1.000000 
z"/>
<path fill="red" opacity="0.000000" stroke="none" 
	d="
M513.000000,224.531342 
	C512.334167,224.346863 511.159332,223.752548 511.076080,223.032074 
	C508.207306,198.209091 501.104462,174.631241 491.054718,151.792206 
	C481.762115,130.673950 469.675171,111.277634 454.960663,93.691292 
	C434.462036,69.191940 410.416809,48.687134 382.401611,33.005638 
	C361.543762,21.330462 339.417419,12.914854 316.290070,7.205492 
	C307.832458,5.117586 299.044922,4.373118 290.419861,2.943558 
	C289.698486,2.823990 289.068573,2.152229 288.698090,1.368506 
	C363.593719,1.000000 438.187408,1.000000 513.000000,1.000000 
	C513.000000,75.354088 513.000000,149.708389 513.000000,224.531342 
z"/>
<path fill="red" opacity="0.000000" stroke="none" 
	d="
M0.999999,289.468658 
	C1.665857,289.653107 2.840666,290.247437 2.923928,290.967865 
	C5.792654,315.790863 12.895645,339.368652 22.945246,362.207703 
	C32.237694,383.326080 44.324940,402.722198 59.039337,420.308594 
	C79.537796,444.808105 103.583199,465.312775 131.598358,480.994324 
	C152.456223,492.669586 174.582657,501.085144 197.710022,506.794556 
	C206.167633,508.882507 214.955200,509.626953 223.580261,511.056488 
	C224.301590,511.176056 224.931427,511.847778 225.301880,512.631470 
	C150.406296,513.000000 75.812599,513.000000 1.000000,513.000000 
	C1.000000,438.645905 1.000000,364.291626 0.999999,289.468658 
z"/>
<path fill="red" opacity="0.000000" stroke="none" 
	d="
M289.468689,513.000000 
	C289.653107,512.334167 290.247406,511.159363 290.967834,511.076111 
	C315.790802,508.207275 339.368683,501.104431 362.207764,491.054840 
	C383.326141,481.762360 402.722229,469.675049 420.308594,454.960724 
	C444.808044,434.462219 465.312775,410.416840 480.994324,382.401703 
	C492.669525,361.543823 501.085144,339.417419 506.794525,316.290039 
	C508.882446,307.832428 509.626923,299.044922 511.056488,290.419861 
	C511.176056,289.698456 511.847778,289.068573 512.631470,288.698059 
	C513.000000,363.593719 513.000000,438.187408 513.000000,513.000000 
	C438.645905,513.000000 364.291626,513.000000 289.468689,513.000000 
z"/>
<path fill="red" opacity="0.000000" stroke="none" 
	d="
M226.614227,494.274414 
	C214.354919,491.694427 202.318588,489.990967 190.660309,486.873688 
	C165.603897,480.173859 142.661392,468.753937 121.292076,454.060150 
	C106.354507,443.788849 92.554932,432.170807 80.412361,418.777985 
	C62.928902,399.494354 48.680977,377.927368 38.072807,354.121521 
	C29.938795,335.867920 24.466513,316.785492 20.896601,297.074677 
	C17.393496,277.732666 17.034122,258.214508 18.263996,238.842056 
	C19.873827,213.484680 25.885622,188.913727 35.870613,165.341309 
	C43.702202,146.852585 53.286880,129.374100 65.361145,113.453529 
	C78.173599,96.559639 92.929169,81.492935 109.831833,68.377007 
	C125.391609,56.303112 142.034088,46.253033 159.809479,38.159904 
	C176.629837,30.501598 194.342392,25.482487 212.558380,21.778166 
	C233.322723,17.555628 254.199249,17.375540 275.059784,18.234890 
	C291.520538,18.912989 307.777374,22.283871 323.668854,26.991899 
	C348.365692,34.308613 371.297913,45.217136 392.535522,59.838123 
	C407.468872,70.118965 421.308807,81.678932 433.435211,95.076210 
	C451.113159,114.606796 465.526733,136.399551 476.160065,160.594070 
	C484.148254,178.769989 489.550690,197.664322 493.116119,217.212494 
	C496.645050,236.560593 496.964020,256.080505 495.726196,275.446655 
	C494.084839,301.126678 487.959412,326.024384 477.700470,349.820251 
	C469.885620,367.947174 460.406860,385.152435 448.480530,400.788177 
	C435.724854,417.511261 421.136749,432.523102 404.326477,445.485260 
	C389.006805,457.298035 372.714722,467.220032 355.232239,475.268890 
	C338.101105,483.156006 320.154968,488.353485 301.645966,492.182037 
	C281.067963,496.438599 260.378387,496.019928 239.641113,495.930725 
	C235.428299,495.912628 231.219315,495.006714 226.614227,494.274414 
M344.034027,269.624420 
	C360.900024,238.668686 377.766022,207.712967 394.937866,176.195847 
	C392.878906,176.087112 392.056213,176.005707 391.233521,176.005630 
	C331.077179,175.999634 270.920746,176.041290 210.764740,175.901306 
	C207.011688,175.892578 205.530350,177.776947 204.108017,180.496078 
	C198.747299,190.744278 193.474518,201.040817 187.956146,211.203796 
	C173.841293,237.198608 159.614517,263.132660 145.427887,289.088470 
	C139.335678,300.234741 133.185425,311.349609 127.154999,322.529144 
	C124.520042,327.414001 122.119629,332.425354 119.298607,338.000000 
	C122.021461,338.000000 123.826958,338.000000 125.632462,338.000000 
	C181.456207,338.000000 237.281372,337.799103 293.102356,338.191925 
	C302.736816,338.259705 310.618774,337.884277 313.131866,326.640900 
	C313.427704,325.317413 314.800415,324.268982 315.492004,322.994385 
	C325.001587,305.468872 334.479279,287.926086 344.034027,269.624420 
z"/>
<path fill="#FFFFFF" opacity="1.000000" stroke="none" 
	d="
M343.999390,270.005981 
	C334.479279,287.926086 325.001587,305.468872 315.492004,322.994385 
	C314.800415,324.268982 313.427704,325.317413 313.131866,326.640900 
	C310.618774,337.884277 302.736816,338.259705 293.102356,338.191925 
	C237.281372,337.799103 181.456207,338.000000 125.632462,338.000000 
	C123.826958,338.000000 122.021461,338.000000 119.298607,338.000000 
	C122.119629,332.425354 124.520042,327.414001 127.154999,322.529144 
	C133.185425,311.349609 139.335678,300.234741 145.427887,289.088470 
	C159.614517,263.132660 173.841293,237.198608 187.956146,211.203796 
	C193.474518,201.040817 198.747299,190.744278 204.108017,180.496078 
	C205.530350,177.776947 207.011688,175.892578 210.764740,175.901306 
	C270.920746,176.041290 331.077179,175.999634 391.233521,176.005630 
	C392.056213,176.005707 392.878906,176.087112 394.937866,176.195847 
	C377.766022,207.712967 360.900024,238.668686 343.999390,270.005981 
z"/>
</svg>