<svg width="108" height="100" viewBox="0 0 108 100" fill="none" xmlns="http://www.w3.org/2000/svg">
<path d="M65.019 2.04571C65.3116 2.11958 65.3116 2.11958 65.6101 2.19495C70.893 3.54691 76.1024 5.98055 80.6139 9.20684C80.7495 9.30335 80.8851 9.39987 81.0248 9.49931C82.8856 10.8345 84.574 12.2797 86.1995 13.9273C86.6754 14.4018 87.1471 14.8356 87.6541 15.268C87.8644 15.4622 88.0747 15.6564 88.2913 15.8565C88.2913 16.0253 88.2913 16.194 88.2913 16.368C88.5289 16.4524 88.7664 16.5368 89.0111 16.6237C90.3124 17.9355 91.3276 19.5678 92.3663 21.1144C92.8102 21.8001 92.8102 21.8001 93.5696 21.9946C93.5696 22.2478 93.5696 22.501 93.5696 22.7618C93.9055 23.4403 93.9055 23.4403 94.3494 24.1525C94.4941 24.3948 94.6388 24.6371 94.788 24.8868C95.2217 25.582 95.2217 25.582 95.7701 26.0956C96.3004 26.7032 96.3198 27.0697 96.4487 27.8769C96.6915 28.4161 96.9481 28.9484 97.2134 29.4754C98.7809 32.6825 99.6532 36.0862 100.407 39.5937C100.489 39.9668 100.489 39.9668 100.571 40.3474C100.624 40.5909 100.676 40.8344 100.73 41.0852C100.801 41.415 100.801 41.415 100.874 41.7514C101.191 43.4209 101.29 45.0337 101.304 46.7308C101.307 46.9678 101.309 47.2049 101.311 47.4491C101.371 54.8719 100.605 61.1022 98.3383 68.1175C98.1244 68.7754 98.1244 68.7754 98.0018 69.3764C97.8552 69.9496 97.5579 70.1728 97.1684 70.5879C97.086 70.9283 97.0062 71.2693 96.9285 71.6109C96.8246 71.7573 96.7207 71.9037 96.6136 72.0545C96.1265 72.7517 95.759 73.4848 95.369 74.2484C93.8705 77.1022 92.0411 79.7009 89.9408 82.0839C89.4803 82.5999 89.4803 82.5999 89.1011 83.1888C88.9378 83.4079 88.9378 83.4079 88.7712 83.6314C88.6128 83.6314 88.4545 83.6314 88.2913 83.6314C88.2369 83.7761 88.1825 83.9208 88.1264 84.07C87.7247 84.8156 87.2228 85.2619 86.6119 85.8213C85.936 86.4423 85.4291 86.9293 84.9324 87.7234C84.618 87.9051 84.2974 88.075 83.9728 88.235C83.6792 88.4447 83.39 88.6616 83.1049 88.8843C82.9414 89.0107 82.7778 89.137 82.6093 89.2672C82.349 89.4683 82.349 89.4683 82.0834 89.6736C80.2933 91.0341 78.4905 92.2713 76.5352 93.35C76.3678 93.4426 76.2003 93.5352 76.0278 93.6305C71.874 95.8942 67.4553 97.5656 62.8597 98.4651C62.6378 98.5105 62.4159 98.5558 62.1873 98.6026C59.6892 99.0518 57.2077 99.0631 54.68 99.0574C53.9431 99.0566 53.2064 99.0626 52.4695 99.0691C48.528 99.0828 44.7649 98.6488 40.9669 97.4901C40.6348 97.3906 40.6348 97.3906 40.296 97.2891C38.4022 96.7069 36.5872 96.0041 34.7889 95.1403C34.6092 95.0549 34.4296 94.9695 34.2445 94.8815C29.7164 92.7115 25.4358 90.0472 21.8303 86.3717C21.3572 85.8805 21.3572 85.8805 20.6335 85.6774C20.4801 85.4717 20.3267 85.266 20.1687 85.054C19.7312 84.3792 19.7312 84.3792 19.149 84.1269C19.0055 84.0478 18.862 83.9687 18.7142 83.8871C18.6894 83.7421 18.6647 83.597 18.6392 83.4476C18.397 82.591 17.893 82.1187 17.3196 81.4734C15.1153 78.9779 15.1153 78.9779 15.1153 78.2605C14.957 78.2605 14.7987 78.2605 14.6355 78.2605C13.9157 77.1392 13.9157 77.1392 13.9157 76.4703C13.6782 76.3859 13.4407 76.3015 13.196 76.2145C13.0199 75.7955 12.8634 75.3671 12.7161 74.9357C12.2838 74.065 11.8356 73.2047 11.3872 72.3432C11.0367 71.6109 11.0367 71.6109 11.0367 71.0994C10.8783 71.015 10.72 70.9306 10.5568 70.8437C10.3969 70.2469 10.2369 69.6501 10.077 69.0534C9.91865 68.969 9.7603 68.8846 9.59716 68.7976C9.46747 68.3829 9.34235 67.9657 9.2446 67.5411C9.10976 66.9757 8.94016 66.4344 8.76025 65.8834C5.0995 54.4193 5.81874 42.9733 9.60483 31.7021C9.84871 30.9608 9.84871 30.9608 9.96776 30.2312C10.1001 29.5478 10.3277 29.3689 10.7968 28.8999C11.0777 28.3391 11.0777 28.3391 11.3066 27.733C11.3864 27.5323 11.4662 27.3315 11.5484 27.1246C11.6514 26.864 11.6514 26.864 11.7565 26.5981C11.9964 26.0866 11.9964 26.0866 12.4434 25.4972C12.9239 24.8511 13.3212 24.2019 13.7208 23.4971C14.5067 22.1531 15.4069 20.9659 16.3815 19.7727C16.8665 19.2016 16.8665 19.2016 16.7948 18.414C16.963 18.3085 17.1313 18.203 17.3046 18.0943C17.9347 17.6855 18.2168 17.4074 18.6692 16.8155C19.3278 15.9616 20.0425 15.2559 20.8332 14.5427C21.1848 14.2206 21.529 13.8891 21.8659 13.5497C26.4004 8.99496 32.0579 5.76497 37.9079 3.58024C38.1 3.50845 38.2921 3.43666 38.4901 3.3627C39.8803 2.85599 41.2818 2.42801 42.7063 2.04571C42.9034 1.99156 43.1005 1.93741 43.3036 1.88162C50.0595 0.121984 58.2852 0.254793 65.019 2.04571ZM45.9902 4.875C45.5495 4.95956 45.5495 4.95956 45.0999 5.04583C41.4006 5.79421 38.0053 7.13425 34.549 8.69533C34.6031 8.95166 34.6572 9.20799 34.7129 9.47208C34.7493 9.64425 34.7856 9.81642 34.823 9.99381C34.9064 10.3885 34.9897 10.7832 35.073 11.1779C35.3104 12.3029 35.5479 13.4278 35.7852 14.5528C36.2447 16.7309 36.7046 18.909 37.166 21.0866C37.3615 22.0095 37.5568 22.9325 37.7521 23.8555C37.8452 24.2949 37.9383 24.7342 38.0316 25.1736C38.4933 27.349 38.951 29.5229 39.3474 31.7132C41.4309 31.3264 42.4903 29.3653 43.666 27.6212C43.8113 27.4164 43.9567 27.2117 44.1065 27.0008C45.9172 24.4259 47.623 21.7828 48.4644 18.6698C48.6228 18.501 48.7811 18.3322 48.9443 18.1582C50.6021 13.7249 51.4586 9.11002 51.5834 4.3475C49.6701 4.2615 47.8708 4.51252 45.9902 4.875ZM54.9423 4.3475C54.9114 6.36768 55.0309 8.24885 55.4221 10.2299C55.5421 10.8692 55.5421 10.8692 55.662 11.5086C55.8204 11.5086 55.9787 11.5086 56.1419 11.5086C56.0955 11.6534 56.0491 11.7981 56.0013 11.9472C55.881 12.6552 55.9998 13.028 56.2319 13.6985C56.298 13.894 56.3642 14.0895 56.4324 14.291C56.4949 14.47 56.5574 14.649 56.6217 14.8334C56.7009 15.0866 56.7801 15.3398 56.8617 15.6007C57.0482 16.103 57.2386 16.6037 57.4315 17.1033C57.5827 17.4979 57.5827 17.4979 57.737 17.9005C58.0429 18.6263 58.3889 19.2726 58.781 19.9485C59.0014 20.3714 59.2218 20.7944 59.4416 21.2176C60.772 24.0361 60.772 24.0361 62.8597 26.0866C62.92 26.2261 62.9803 26.3655 63.0424 26.5092C63.4791 27.3916 64.0995 28.0608 64.7341 28.788C64.8592 28.9356 64.9843 29.0831 65.1132 29.2351C65.237 29.378 65.3609 29.5209 65.4885 29.6682C65.5998 29.797 65.7111 29.9257 65.8257 30.0584C66.3145 30.5263 66.8528 30.8478 67.4182 31.2017C67.947 29.1322 68.4748 27.0623 69.0011 24.992C69.2456 24.0306 69.4905 23.0693 69.7362 22.1083C69.9735 21.1799 70.2098 20.2512 70.4455 19.3223C70.5354 18.9689 70.6256 18.6156 70.7161 18.2625C70.8434 17.7657 70.9693 17.2686 71.0952 16.7715C71.1671 16.4893 71.2391 16.207 71.3132 15.9162C71.5131 15.0742 71.5131 15.0742 71.6204 14.1409C71.7308 13.3418 71.9549 12.7572 72.2729 12.0311C72.6483 10.9631 72.7744 9.81878 72.9364 8.69533C67.6053 5.62656 60.9816 4.08768 54.9423 4.3475ZM76.7751 10.7414C76.7389 17.3124 76.7988 23.8803 76.8951 30.4504C76.8979 30.6464 76.9008 30.8423 76.9038 31.0442C76.9396 33.4837 76.9767 35.9233 77.015 38.3628C80.748 40.2315 80.748 40.2315 84.6475 41.6397C84.884 41.711 85.1205 41.7822 85.3642 41.8556C89.4337 43.0396 93.6625 43.8075 97.8882 43.7337C96.8366 37.0668 94.8992 30.5151 91.042 25.0536C90.6884 24.549 90.376 24.0297 90.0608 23.4971C89.3384 22.3325 88.5046 21.3229 87.6156 20.3002C87.1487 19.7588 86.7058 19.205 86.267 18.6378C85.9627 18.2738 85.9627 18.2738 85.6522 17.9025C85.4939 17.9025 85.3355 17.9025 85.1724 17.9025C85.094 17.6884 85.094 17.6884 85.014 17.4699C84.5921 16.695 84.0258 16.1824 83.388 15.6167C83.2552 15.4977 83.1224 15.3788 82.9857 15.2562C80.0811 12.4131 80.0811 12.4131 76.7751 10.7414ZM30.0205 11.2359C29.7681 11.4263 29.7681 11.4263 29.5106 11.6205C29.2244 11.8351 29.2244 11.8351 28.9324 12.0541C28.6248 12.2905 28.6248 12.2905 28.311 12.5316C28.0986 12.6892 27.8861 12.8468 27.6672 13.0092C26.2749 14.0575 24.998 15.1835 23.7516 16.4229C23.2727 16.8795 23.2727 16.8795 22.7928 17.1352C22.7928 17.304 22.7928 17.4728 22.7928 17.6467C22.6524 17.7107 22.512 17.7747 22.3673 17.8405C21.7623 18.2004 21.4131 18.5897 20.9634 19.1493C20.8218 19.3227 20.6801 19.4961 20.5342 19.6748C20.1428 20.1772 20.1428 20.1772 19.9381 20.7178C19.6739 21.2273 19.6739 21.2273 19.1359 21.6689C18.243 22.4535 17.6579 23.3817 17.0047 24.3923C16.8789 24.5822 16.753 24.7721 16.6233 24.9677C15.9533 25.9911 15.3734 26.9998 14.8754 28.1327C14.7299 28.4366 14.5833 28.7399 14.4359 29.0428C12.584 32.8913 11.253 36.7116 10.3169 40.9204C10.2274 41.319 10.2274 41.319 10.136 41.7256C9.86859 43.0216 9.82275 44.1976 9.83708 45.524C17.0356 45.3012 24.5068 43.3899 30.7102 39.3859C30.7075 39.0743 30.7047 38.7628 30.7018 38.4418C30.6995 38.0265 30.6974 37.6112 30.6952 37.196C30.6932 36.9914 30.6912 36.7868 30.6891 36.5761C30.6884 36.3741 30.6876 36.1722 30.6868 35.9641C30.6855 35.7807 30.6843 35.5972 30.683 35.4081C30.7102 34.7823 30.7102 34.7823 30.8269 33.9631C30.97 32.8355 31.005 31.7307 31.0261 30.5943C31.0311 30.3624 31.0361 30.1306 31.0412 29.8917C31.057 29.1349 31.0712 28.378 31.0851 27.6212C31.0902 27.3632 31.0953 27.1052 31.1005 26.8393C31.2022 21.6436 31.2172 16.4494 31.1901 11.2529C30.504 10.9088 30.504 10.9088 30.0205 11.2359ZM53.0229 15.3449C52.9784 15.701 52.9784 15.701 52.9329 16.0643C52.783 16.8795 52.783 16.8795 52.3032 17.6467C52.1351 18.0533 51.9758 18.4641 51.8233 18.8776C51.7389 19.1054 51.6544 19.3332 51.5675 19.5679C51.4012 20.0402 51.2545 20.5204 51.1185 21.0035C50.8215 21.8603 50.3936 22.5426 49.9255 23.3033C49.6252 23.7945 49.6252 23.7945 49.5441 24.4722C49.4241 25.0636 49.4241 25.0636 48.8787 25.6441C48.22 26.3472 47.746 27.0481 47.2348 27.8769C45.3772 30.8098 43.167 33.3487 40.7869 35.8053C40.5494 36.0585 40.5494 36.0585 40.3071 36.3168C40.3266 36.8039 40.3266 36.8039 40.4652 37.3519C40.5118 37.5655 40.5583 37.779 40.6062 37.999C40.6597 38.2305 40.7131 38.462 40.7682 38.7005C40.8474 39.0583 40.8474 39.0583 40.9282 39.4233C41.0984 40.1894 41.2725 40.9545 41.4467 41.7196C41.5607 42.2297 41.6744 42.7399 41.7878 43.2502C42.2428 45.2899 42.7066 47.327 43.1861 49.3603C46.9314 49.8801 50.6794 50.3365 54.438 50.7318C55.2427 50.8165 56.0473 50.9028 56.8518 50.9892C57.3684 51.0441 57.8849 51.0989 58.4015 51.1536C58.7587 51.1919 58.7587 51.1919 59.1231 51.231C59.3446 51.2542 59.5661 51.2773 59.7943 51.3011C59.9874 51.3215 60.1805 51.3419 60.3794 51.3629C60.9682 51.4085 61.5498 51.4137 62.1399 51.4063C63.0553 48.3818 63.8753 45.3337 64.6601 42.2679C64.8564 41.5027 65.055 40.7383 65.2537 39.9738C65.3796 39.4838 65.5054 38.9938 65.631 38.5037C65.6902 38.277 65.7494 38.0503 65.8104 37.8167C66.2063 36.3222 66.2063 36.3222 66.2186 34.7823C65.8313 34.2701 65.8313 34.2701 65.3039 33.8552C64.6964 33.3338 64.122 32.822 63.5795 32.2247C63.3942 32.0322 63.2089 31.8397 63.0181 31.6413C62.3232 30.8842 61.6824 30.0955 61.0453 29.2836C60.9329 29.1415 60.8204 28.9994 60.7046 28.853C58.26 25.7551 58.26 25.7551 57.6002 24.3303C57.2975 23.692 56.9448 23.0984 56.5917 22.4901C55.6997 20.8846 55.0396 19.2102 54.4033 17.4738C54.3275 17.2718 54.2518 17.0697 54.1738 16.8615C54.1078 16.6801 54.0419 16.4988 53.9739 16.3119C53.7414 15.7692 53.7414 15.7692 53.0229 15.3449ZM73.4162 19.6928C72.9302 21.5671 72.4478 23.4425 71.968 25.3186C71.8042 25.9569 71.6397 26.595 71.4743 27.2328C71.2369 28.1489 71.0025 29.0658 70.7687 29.9829C70.6939 30.2685 70.6192 30.5541 70.5423 30.8484C70.475 31.1146 70.4077 31.3808 70.3384 31.655C70.2782 31.889 70.218 32.123 70.156 32.3641C70.0516 33.0287 70.0516 33.3961 70.2972 34.015C70.5348 34.1838 70.7723 34.3526 71.017 34.5265C71.2078 34.6722 71.3987 34.818 71.5953 34.9681C71.8053 35.1283 72.0153 35.2886 72.2316 35.4536C72.4422 35.6152 72.6528 35.7767 72.8698 35.9432C73.3753 36.3628 73.3753 36.3628 73.8961 36.3168C73.9376 28.0014 73.9376 28.0014 73.6561 19.6928C73.577 19.6928 73.4978 19.6928 73.4162 19.6928ZM34.3091 23.2733C34.0107 23.9093 34.0312 24.3521 34.0199 25.0637C34.0151 25.33 34.0103 25.5962 34.0054 25.8705C34.0014 26.1587 33.9974 26.447 33.9932 26.744C33.9882 27.0385 33.9832 27.3329 33.9781 27.6363C33.9624 28.5797 33.9483 29.523 33.9342 30.4664C33.9238 31.1048 33.9134 31.7432 33.9028 32.3816C33.8771 33.9491 33.8526 35.5166 33.8292 37.0841C34.679 36.7364 35.3441 36.3712 36.0635 35.7733C36.2308 35.6355 36.3981 35.4977 36.5705 35.3557C36.6951 35.2509 36.8198 35.1461 36.9482 35.038C36.8735 34.633 36.7985 34.2281 36.7233 33.8232C36.6815 33.5977 36.6398 33.3722 36.5967 33.1399C36.5255 32.7738 36.4511 32.4082 36.3648 32.0459C36.1741 31.2232 36.0068 30.3952 35.8376 29.5673C35.7822 29.297 35.7822 29.297 35.7257 29.0212C35.6082 28.448 35.491 27.8747 35.3737 27.3015C35.2939 26.9118 35.2141 26.5222 35.1343 26.1326C34.939 25.1795 34.7439 24.2264 34.549 23.2733C34.4698 23.2733 34.3906 23.2733 34.3091 23.2733ZM69.0976 37.3398C68.5668 38.9785 68.1052 40.6287 67.6778 42.3011C67.6149 42.5458 67.552 42.7905 67.4872 43.0426C67.3557 43.5553 67.2244 44.0681 67.0935 44.581C66.8925 45.3675 66.6898 46.1536 66.4871 46.9396C66.3591 47.4394 66.2311 47.9393 66.1033 48.4392C66.0426 48.6741 65.9819 48.9091 65.9193 49.1512C65.864 49.369 65.8087 49.5868 65.7517 49.8112C65.6782 50.0981 65.6782 50.0981 65.6033 50.3908C65.4729 50.9337 65.4729 50.9337 65.4988 51.6621C66.1622 52.0156 66.7756 52.0303 67.5138 52.1106C67.8218 52.1444 68.1299 52.1782 68.4472 52.213C68.6081 52.2302 68.769 52.2473 68.9348 52.2649C69.4241 52.3171 69.9131 52.3708 70.4022 52.4248C72.1458 52.6184 72.1458 52.6184 73.8961 52.6851C74.0002 50.9889 74.0712 49.2937 74.1201 47.5947C74.1405 47.0181 74.1683 46.4418 74.2038 45.8661C74.5023 42.7074 74.5023 42.7074 73.4942 39.864C72.2115 38.6593 70.7075 37.9119 69.0976 37.3398ZM37.428 38.6186C37.159 38.8312 37.159 38.8312 36.8845 39.0482C36.6482 39.2335 36.4119 39.4188 36.1684 39.6096C35.9346 39.7936 35.7008 39.9776 35.4599 40.1671C34.7889 40.6646 34.7889 40.6646 33.8292 41.1761C33.8292 43.5393 33.8292 45.9025 33.8292 48.3373C35.8275 48.6536 37.8137 48.9322 39.8272 49.1045C39.4987 46.8592 39.0876 44.6416 38.6276 42.4229C38.5652 42.1117 38.5027 41.8005 38.4383 41.4799C38.3771 41.1838 38.3159 40.8877 38.2528 40.5827C38.198 40.3156 38.1433 40.0485 38.0869 39.7734C37.9499 39.0936 37.9499 39.0936 37.428 38.6186ZM77.015 42.1992C77.0942 45.7439 77.1734 49.2887 77.255 52.9408C79.6074 53.3631 79.6074 53.3631 81.9615 53.6748C82.1214 53.6923 82.2814 53.7098 82.4462 53.7279C82.9622 53.7842 83.4782 53.8391 83.9943 53.8939C84.3585 53.9333 84.7227 53.9727 85.0868 54.0122C85.8439 54.094 86.601 54.1752 87.3582 54.2558C88.3269 54.3591 89.2954 54.4637 90.2639 54.5689C91.0133 54.6501 91.7627 54.7307 92.5121 54.8111C92.8694 54.8495 93.2267 54.888 93.5839 54.9267C94.082 54.9806 94.5802 55.0336 95.0784 55.0864C95.3612 55.1167 95.6439 55.1469 95.9352 55.1781C96.591 55.2343 97.2309 55.2555 97.8882 55.2426C98.1615 54.3686 98.1553 53.6992 98.1515 52.778C98.1508 52.4459 98.15 52.1137 98.1492 51.7715C98.1472 51.4206 98.1452 51.0698 98.1431 50.719C98.1419 50.3652 98.1408 50.0113 98.1398 49.6575C98.137 48.7912 98.133 47.9248 98.1281 47.0585C97.9741 47.0484 97.82 47.0382 97.6613 47.0278C90.8917 46.5639 84.3949 45.3345 78.1265 42.4719C77.5343 42.1672 77.5343 42.1672 77.015 42.1992ZM29.1058 43.9095C27.4368 44.7376 25.7367 45.4068 23.9924 46.0355C23.7642 46.1179 23.5359 46.2003 23.3008 46.2852C22.8123 46.4599 22.3228 46.6317 21.8331 46.8027C21.8331 46.8871 21.8331 46.9715 21.8331 47.0585C24.709 47.4761 27.5722 47.8908 30.4703 48.0815C30.5495 46.4779 30.6287 44.8744 30.7102 43.2222C30.1767 43.2222 29.5682 43.6735 29.1058 43.9095ZM9.59716 49.1045C9.56219 51.7516 9.53978 54.3343 9.95704 56.953C9.99137 57.1872 10.0257 57.4215 10.0611 57.6628C10.1433 58.2206 10.2296 58.7778 10.3169 59.3347C10.5472 59.3577 10.7774 59.3806 11.0146 59.4043C21.6684 60.4843 21.6684 60.4843 25.5623 62.1539C26.1214 62.4075 26.1214 62.4075 26.6053 62.5226C27.3385 62.7209 28.0266 63.0221 28.7309 63.3149C29.1521 63.4895 29.1521 63.4895 29.5819 63.6675C29.9029 63.8016 29.9029 63.8016 30.2304 63.9383C30.3839 59.7589 30.5027 55.589 30.4703 51.4063C25.9418 50.857 21.4101 50.3536 16.8745 49.875C16.049 49.7878 15.2235 49.7002 14.3979 49.6125C12.7977 49.4428 11.1975 49.2735 9.59716 49.1045ZM33.5893 51.9178C33.4756 53.81 33.387 55.7022 33.3155 57.5968C33.2882 58.2405 33.2553 58.8841 33.2166 59.5271C32.8569 62.843 32.8569 62.843 33.6307 65.9488C34.4398 66.7767 35.4292 67.131 36.4683 67.5188C37.0326 67.9005 37.0326 67.9005 37.4908 68.2781C37.6301 68.3869 37.7695 68.4957 37.913 68.6078C38.0449 68.7126 38.1768 68.8175 38.3127 68.9255C39.2203 69.7492 39.2203 69.7492 40.3071 70.0764C40.6014 70.4051 40.6014 70.4051 40.9369 70.8596C41.4842 71.5669 42.0494 72.1702 42.7063 72.7618C43.6129 73.5814 44.3543 74.4662 45.1055 75.4472C45.378 74.5775 45.3086 73.9889 45.1149 73.1025C45.0342 72.7284 45.0342 72.7284 44.9518 72.3467C44.8937 72.0881 44.8355 71.8294 44.7756 71.563C44.7193 71.3014 44.663 71.0398 44.6051 70.7702C44.4288 69.5651 44.4288 69.5651 43.9059 68.5419C43.8533 68.0736 43.8011 67.6053 43.7507 67.1368C43.5818 65.859 43.2908 64.606 43.0212 63.3489C42.9267 62.9037 42.9267 62.9037 42.8303 62.4496C42.6976 61.8257 42.5645 61.2019 42.431 60.5783C42.2261 59.6206 42.0228 58.6624 41.8197 57.7043C41.6905 57.0975 41.5612 56.4907 41.4317 55.884C41.3402 55.4529 41.3402 55.4529 41.2469 55.013C41.1901 54.7483 41.1332 54.4835 41.0746 54.2108C41.0248 53.9773 40.9749 53.7438 40.9235 53.5032C40.8051 52.9352 40.8051 52.9352 40.547 52.4293C39.9171 52.3042 39.3084 52.2128 38.6726 52.1416C38.5033 52.1195 38.334 52.0974 38.1595 52.0747C37.0884 51.9466 36.0339 51.9073 34.956 51.912C34.6993 51.9128 34.4426 51.9137 34.1781 51.9145C33.9838 51.9156 33.7895 51.9167 33.5893 51.9178ZM43.9059 52.9408C43.9575 53.1851 44.0091 53.4294 44.0622 53.6811C44.2674 54.6527 44.4726 55.6244 44.6777 56.5961C44.7734 57.0489 44.869 57.5017 44.9646 57.9545C45.6097 61.0101 46.2537 64.0659 46.8961 67.1221C47.3413 69.2397 47.7877 71.357 48.2347 73.4742C48.5309 74.8781 48.8256 76.2825 49.1183 77.6873C49.9679 81.7596 50.8423 85.801 52.0632 89.7695C54.2364 86.2946 54.8303 80.9697 55.8037 76.9507C56.6196 73.5875 57.4775 70.239 58.3612 66.8954C59.4288 62.8529 60.4584 58.804 61.4202 54.7311C58.3181 54.3285 55.212 53.9739 52.1033 53.6347C51.3064 53.5475 50.5096 53.459 49.7127 53.3704C49.201 53.3144 48.6893 53.2585 48.1776 53.2026C47.8241 53.163 47.8241 53.163 47.4634 53.1227C46.2702 52.994 45.1052 52.9119 43.9059 52.9408ZM64.5391 54.9869C63.8007 57.6633 63.0751 60.331 62.4098 63.0272C62.246 63.6892 62.082 64.3513 61.9178 65.0133C61.8769 65.1784 61.836 65.3435 61.7939 65.5136C61.5084 66.6625 61.2137 67.8084 60.915 68.9535C60.836 69.2586 60.7569 69.5638 60.6754 69.8781C60.525 70.4575 60.373 71.0365 60.2193 71.6149C60.1526 71.873 60.0859 72.1312 60.0172 72.3972C59.9578 72.6229 59.8984 72.8486 59.8372 73.0812C59.6896 73.6972 59.6896 73.6972 59.9806 74.4242C60.3555 74.0887 60.3555 74.0887 60.7004 73.657C60.7004 73.4038 60.7004 73.1506 60.7004 72.8897C60.834 72.8317 60.9676 72.7736 61.1053 72.7139C61.8188 72.2821 62.3127 71.7473 62.8597 71.0994C62.8597 70.9306 62.8597 70.7618 62.8597 70.5879C63.018 70.5879 63.1764 70.5879 63.3395 70.5879C63.4187 70.4191 63.4979 70.2503 63.5795 70.0764C63.7177 70.0045 63.8559 69.9326 63.9984 69.8586C64.6845 69.4859 65.178 68.9917 65.7537 68.446C68.2824 66.1242 71.2304 64.3803 74.136 62.6595C74.136 60.4651 74.136 58.2708 74.136 56.0099C70.969 55.6723 67.8021 55.3347 64.5391 54.9869ZM77.255 56.5214C77.255 57.9562 77.255 59.391 77.255 60.8692C77.5828 60.7644 77.9106 60.6596 78.2484 60.5515C78.4678 60.4814 78.6872 60.4113 78.9133 60.339C79.421 60.1766 79.9287 60.0139 80.4363 59.851C81.2749 59.582 82.114 59.3144 82.9531 59.047C83.2392 58.955 83.5253 58.863 83.82 58.7683C84.0968 58.6802 84.3736 58.5922 84.6588 58.5015C84.9074 58.422 85.1559 58.3425 85.4121 58.2606C86.1291 58.0568 86.838 57.9171 87.5716 57.8002C87.5716 57.7158 87.5716 57.6314 87.5716 57.5444C86.3724 57.3975 85.1731 57.2518 83.9736 57.1073C83.5662 57.0581 83.1587 57.0085 82.7513 56.9585C82.1636 56.8864 81.5757 56.8157 80.9878 56.7452C80.7174 56.7116 80.7174 56.7116 80.4416 56.6774C80.1824 56.6467 80.1824 56.6467 79.9179 56.6153C79.7682 56.5971 79.6185 56.579 79.4643 56.5602C78.7295 56.5064 77.9915 56.5214 77.255 56.5214ZM77.255 64.7056C77.3341 72.6391 77.4133 80.5726 77.4949 88.7465C80.151 87.1642 80.151 87.1642 82.5332 85.1659C82.5332 84.9971 82.5332 84.8283 82.5332 84.6544C82.729 84.5669 82.729 84.5669 82.9287 84.4776C83.6569 84.0456 84.2366 83.4817 84.8425 82.8801C84.9693 82.7544 85.0961 82.6286 85.2267 82.4991C87.7501 79.9668 90.3246 76.9946 91.8902 73.657C92.0691 73.31 92.2492 72.9638 92.43 72.618C92.5914 72.3079 92.5914 72.3079 92.7561 71.9916C92.9666 71.5901 93.1788 71.1897 93.3934 70.7907C94.6068 68.5189 95.5265 66.2203 96.2687 63.7305C96.3307 63.5227 96.3927 63.3148 96.4566 63.1007C96.77 62.0203 97.0258 60.9705 97.1684 59.8462C90.5104 59.601 83.2054 61.534 77.255 64.7056ZM11.2766 62.9153C12.2444 66.3834 13.5341 69.8218 15.3553 72.8897C15.521 73.1693 15.6868 73.4488 15.8576 73.7369C17.0623 75.7183 18.3474 77.5574 19.8069 79.3335C20.1895 79.8013 20.5615 80.2794 20.9203 80.7681C21.3084 81.349 21.3084 81.349 21.8331 81.5853C22.1971 82.0177 22.5372 82.4673 22.8809 82.9181C23.2982 83.4055 23.7314 83.7561 24.2324 84.1429C24.6432 84.5039 25.053 84.8663 25.462 85.2298C27.4148 87.2013 27.4148 87.2013 29.7505 88.235C29.9794 83.9523 30.0598 79.6704 30.1182 75.3818C30.1305 74.4917 30.1437 73.6015 30.1568 72.7114C30.1822 70.9805 30.2067 69.2497 30.2304 67.5188C26.7312 65.8743 26.7312 65.8743 23.0927 64.6416C22.877 64.5814 22.6613 64.5212 22.439 64.4592C18.7645 63.4663 15.0793 62.6847 11.2766 62.9153ZM64.0165 74.4598C61.7003 76.9819 59.219 80.0356 58.0613 83.3756C57.9425 83.5022 57.9425 83.5022 57.8213 83.6314C57.7471 83.8793 57.6729 84.1272 57.5964 84.3827C57.3415 85.1659 57.3415 85.1659 56.8617 85.6774C56.6542 86.2943 56.467 86.9044 56.2918 87.5316C56.24 87.714 56.1881 87.8963 56.1346 88.0842C56.0278 88.4614 55.9217 88.8389 55.8165 89.2166C55.673 89.7304 55.5263 90.243 55.379 90.7555C54.9188 92.3975 54.5731 93.9409 54.4624 95.6518C59.8033 95.8335 64.7827 94.7096 69.8174 92.8385C69.9722 92.7811 70.127 92.7236 70.2865 92.6644C71.2521 92.2922 72.1845 91.8613 73.1182 91.4059C73.3542 91.291 73.5902 91.176 73.8334 91.0576C74.0124 90.9701 74.1915 90.8826 74.3759 90.7925C74.4034 82.6893 74.3951 74.595 74.136 66.4958C71.1029 66.4958 65.9725 72.3831 64.0165 74.4598ZM33.3494 69.5649C33.1382 72.6174 33.0459 75.6654 32.9888 78.7252C32.9746 79.4876 32.9589 80.25 32.9431 81.0124C32.8812 84.1024 32.8562 87.1904 32.8695 90.281C38.2624 93.2659 43.6467 94.8668 49.664 95.6518C49.5001 93.9763 49.1841 92.3678 48.8243 90.7286C48.7702 90.478 48.716 90.2274 48.6603 89.9693C47.8381 86.1731 46.7322 82.8665 44.3857 79.7951C44.1556 79.4153 44.1556 79.4153 43.9209 79.0278C43.4146 78.2428 42.8649 77.6462 42.2265 76.9818C41.9902 76.6739 41.7553 76.3648 41.5217 76.0546C40.8837 75.241 40.2469 74.8819 39.3474 74.4242C39.2537 74.1997 39.2537 74.1997 39.1581 73.9706C38.7393 73.1498 38.0891 72.6841 37.398 72.1384C37.2583 72.0262 37.1186 71.914 36.9746 71.7984C35.2947 70.2862 35.2947 70.2862 33.3494 69.5649Z" fill="white"/>
<path d="M64.2986 68.7979C64.457 68.8823 64.6154 68.9666 64.7786 69.0536C64.541 69.0536 64.3034 69.0536 64.0586 69.0536C64.1378 68.9692 64.217 68.8848 64.2986 68.7979Z" fill="#07090B"/>
<path d="M21.832 86.7012C21.9904 86.87 22.1488 87.0388 22.312 87.2127C22.1536 87.2127 21.9952 87.2127 21.832 87.2127C21.832 87.0439 21.832 86.8751 21.832 86.7012Z" fill="#07090B"/>
<path d="M21.3535 86.1895C21.5119 86.3583 21.6703 86.527 21.8335 86.701C21.6751 86.701 21.5167 86.701 21.3535 86.701C21.3535 86.5322 21.3535 86.3634 21.3535 86.1895Z" fill="#07090B"/>
<path d="M25.6719 84.9102C25.8303 84.9102 25.9887 84.9102 26.1519 84.9102C26.0727 85.079 25.9935 85.2478 25.9119 85.4217C25.8327 85.2529 25.7535 85.0841 25.6719 84.9102Z" fill="#07090B"/>
<path d="M22.0723 81.5859C22.2307 81.5859 22.3891 81.5859 22.5523 81.5859C22.4731 81.7547 22.3939 81.9235 22.3123 82.0974C22.2331 81.9286 22.1539 81.7599 22.0723 81.5859Z" fill="#07090B"/>
<path d="M91.4099 80.3066C91.4891 80.4754 91.5683 80.6442 91.6499 80.8182C91.4915 80.7338 91.3331 80.6494 91.1699 80.5624C91.2491 80.478 91.3283 80.3936 91.4099 80.3066Z" fill="#07090B"/>
<path d="M40.7871 70.333C40.9455 70.333 41.1039 70.333 41.2671 70.333C41.1879 70.5018 41.1087 70.6706 41.0271 70.8445C40.9479 70.6757 40.8687 70.5069 40.7871 70.333Z" fill="#07090B"/>
<path d="M71.4959 68.2861C71.5751 68.4549 71.6543 68.6237 71.7359 68.7976C71.5775 68.7132 71.4191 68.6288 71.2559 68.5419C71.3351 68.4575 71.4143 68.3731 71.4959 68.2861Z" fill="#07090B"/>
<path d="M29.0312 67.5195C29.7513 67.7753 29.7513 67.7753 29.7513 67.7753L29.0312 67.5195Z" fill="white"/>
<path d="M35.748 66.4961C35.9064 66.4961 36.0648 66.4961 36.228 66.4961C36.1488 66.6649 36.0696 66.8337 35.988 67.0076C35.9088 66.8388 35.8296 66.67 35.748 66.4961Z" fill="#07090B"/>
<path d="M64.0586 33.248C64.217 33.4168 64.3754 33.5856 64.5386 33.7596C64.3802 33.7596 64.2218 33.7596 64.0586 33.7596C64.0586 33.5908 64.0586 33.422 64.0586 33.248Z" fill="#07090B"/>
<path d="M40.0664 30.9463C40.304 31.0729 40.304 31.0729 40.5464 31.202C40.3088 31.3286 40.3088 31.3286 40.0664 31.4578C40.0664 31.289 40.0664 31.1202 40.0664 30.9463Z" fill="#07090B"/>
<path d="M18.2341 23.0176C18.3133 23.1864 18.3925 23.3552 18.4741 23.5291C18.3157 23.4447 18.1573 23.3603 17.9941 23.2733C18.0733 23.1889 18.1525 23.1045 18.2341 23.0176Z" fill="#07090B"/>
<path d="M19.9141 20.7158C20.1517 20.8424 20.1517 20.8424 20.3941 20.9716C20.1565 21.0982 20.1565 21.0982 19.9141 21.2273C19.9141 21.0585 19.9141 20.8897 19.9141 20.7158Z" fill="#07090B"/>
<path d="M61.1797 94.6289C61.6597 94.8847 61.6597 94.8847 61.6597 94.8847L61.1797 94.6289Z" fill="white"/>
<path d="M79.8945 91.3047C80.3745 91.5604 80.3745 91.5604 80.3745 91.5604L79.8945 91.3047Z" fill="white"/>
<path d="M81.334 90.2812C81.814 90.537 81.814 90.537 81.814 90.537L81.334 90.2812Z" fill="white"/>
<path d="M85.4121 86.9561C85.8921 87.2118 85.8921 87.2118 85.8921 87.2118L85.4121 86.9561Z" fill="white"/>
<path d="M80.373 85.9336C80.853 86.1893 80.853 86.1893 80.853 86.1893L80.373 85.9336Z" fill="white"/>
<path d="M16.7949 81.5859C17.2749 81.8417 17.2749 81.8417 17.2749 81.8417L16.7949 81.5859Z" fill="white"/>
<path d="M38.1484 73.4014C38.6284 73.6571 38.6284 73.6571 38.6284 73.6571L38.1484 73.4014Z" fill="white"/>
<path d="M63.5801 69.5654C64.0601 69.8212 64.0601 69.8212 64.0601 69.8212L63.5801 69.5654Z" fill="white"/>
<path d="M73.416 67.0078C73.896 67.2636 73.896 67.2636 73.896 67.2636L73.416 67.0078Z" fill="white"/>
<path d="M66.459 67.0078C66.939 67.2636 66.939 67.2636 66.939 67.2636L66.459 67.0078Z" fill="white"/>
<path d="M28.0703 67.0078C28.5503 67.2636 28.5503 67.2636 28.5503 67.2636L28.0703 67.0078Z" fill="white"/>
<path d="M34.7891 65.9844C35.2691 66.2401 35.2691 66.2401 35.2691 66.2401L34.7891 65.9844Z" fill="white"/>
<path d="M25.6719 61.6367C26.1519 61.8925 26.1519 61.8925 26.1519 61.8925L25.6719 61.6367Z" fill="white"/>
<path d="M93.8086 60.3584C94.2886 60.6142 94.2886 60.6142 94.2886 60.6142L93.8086 60.3584Z" fill="white"/>
<path d="M83.252 57.2891C83.732 57.5448 83.732 57.5448 83.732 57.5448L83.252 57.2891Z" fill="white"/>
<path d="M47.2637 53.4531C47.7437 53.7089 47.7437 53.7089 47.7437 53.7089L47.2637 53.4531Z" fill="white"/>
<path d="M22.3125 42.7109C22.7925 42.9667 22.7925 42.9667 22.7925 42.9667L22.3125 42.7109Z" fill="white"/>
<path d="M26.8711 40.665C27.3511 40.9208 27.3511 40.9208 27.3511 40.9208L26.8711 40.665Z" fill="white"/>
<path d="M78.9336 38.875C79.4136 39.1308 79.4136 39.1308 79.4136 39.1308L78.9336 38.875Z" fill="white"/>
<path d="M70.0566 38.3633C70.5366 38.619 70.5366 38.619 70.5366 38.619L70.0566 38.3633Z" fill="white"/>
<path d="M70.2969 33.5039C70.7769 33.7597 70.7769 33.7597 70.7769 33.7597L70.2969 33.5039Z" fill="white"/>
<path d="M24.4727 15.8564C24.9527 16.1122 24.9527 16.1122 24.9527 16.1122L24.4727 15.8564Z" fill="white"/>
<path d="M87.0918 14.5781C87.5718 14.8339 87.5718 14.8339 87.5718 14.8339L87.0918 14.5781Z" fill="white"/>
<path d="M78.6934 12.5322C79.1734 12.788 79.1734 12.788 79.1734 12.788L78.6934 12.5322Z" fill="white"/>
<path d="M84.4531 12.0205C84.9331 12.2763 84.9331 12.2763 84.9331 12.2763L84.4531 12.0205Z" fill="white"/>
<path d="M26.3906 9.20703C26.8706 9.46279 26.8706 9.46279 26.8706 9.46279L26.3906 9.20703Z" fill="white"/>
<path d="M72.2168 8.69531C72.6968 8.95107 72.6968 8.95107 72.6968 8.95107L72.2168 8.69531Z" fill="white"/>
<path d="M73.416 4.85938C73.896 5.11513 73.896 5.11513 73.896 5.11513L73.416 4.85938Z" fill="white"/>
<path d="M37.4277 3.3252C37.9077 3.58095 37.9077 3.58095 37.9077 3.58095L37.4277 3.3252Z" fill="white"/>
<path d="M38.627 2.81348C39.107 3.06923 39.107 3.06923 39.107 3.06923L38.627 2.81348Z" fill="white"/>
<path d="M65.0195 1.79004C65.4995 2.04579 65.4995 2.04579 65.4995 2.04579L65.0195 1.79004Z" fill="white"/>
</svg>
