<svg width="24" height="24" viewBox="0 0 24 24" fill="none" xmlns="http://www.w3.org/2000/svg">
<path d="M15.6316 18.0526C15.6316 17.564 15.8257 17.0955 16.1711 16.75C16.5166 16.4045 16.9851 16.2104 17.4737 16.2104H21.4211V17.9999C21.4211 18.5024 21.2214 18.9844 20.8661 19.3397C20.5108 19.695 20.0288 19.8947 19.5263 19.8947H17.4737C16.9851 19.8947 16.5166 19.7006 16.1711 19.3551C15.8257 19.0097 15.6316 18.5411 15.6316 18.0526ZM3 20.1578C3 19.6693 3.19408 19.2007 3.53954 18.8553C3.885 18.5098 4.35355 18.3157 4.84211 18.3157H8.26316V20.1052C8.26316 20.354 8.21415 20.6004 8.11893 20.8303C8.02371 21.0602 7.88415 21.269 7.7082 21.445C7.53226 21.6209 7.32339 21.7605 7.09351 21.8557C6.86363 21.9509 6.61724 21.9999 6.36842 21.9999H4.84211C4.35355 21.9999 3.885 21.8058 3.53954 21.4604C3.19408 21.1149 3 20.6464 3 20.1578Z" fill="white" stroke="white" stroke-width="3" stroke-linejoin="round"/>
<path d="M8.26367 9.39158L21.4216 6.27632M8.26367 19.8947V5.15789L21.4216 2V17.6274" stroke="white" stroke-width="3" stroke-linecap="round" stroke-linejoin="round"/>
</svg>
