<svg width="24" height="24" viewBox="0 0 24 24" fill="none" xmlns="http://www.w3.org/2000/svg">
<g clip-path="url(#clip0_119_2747)">
<mask id="mask0_119_2747" style="mask-type:luminance" maskUnits="userSpaceOnUse" x="0" y="0" width="24" height="24">
<path d="M2 12C2 6.48 6.48 2 12 2C17.52 2 22 6.48 22 12C22 17.52 17.52 22 12 22C6.48 22 2 17.52 2 12Z" fill="white" stroke="white" stroke-width="2.25" stroke-linecap="round" stroke-linejoin="round"/>
<path d="M8.63086 15.31C10.8109 14.73 13.1209 14.97 15.1309 16" stroke="black" stroke-width="2.25" stroke-linecap="round" stroke-linejoin="round"/>
<path d="M7.5 12.07C8.6 11.7 9.78 11.5 11 11.5C13.02 11.5 14.92 12.05 16.55 13" stroke="black" stroke-width="2.25" stroke-linecap="round" stroke-linejoin="round"/>
<path d="M7 8.91C8.38 8.32 9.9 8 11.5 8C13.91 8 16.15 8.74 18 10" stroke="black" stroke-width="2.25" stroke-linecap="round" stroke-linejoin="round"/>
</mask>
<g mask="url(#mask0_119_2747)">
<path d="M24 0H0V24H24V0Z" fill="white"/>
</g>
</g>
<defs>
<clipPath id="clip0_119_2747">
<rect width="24" height="24" fill="white"/>
</clipPath>
</defs>
</svg>
