<svg width="24" height="24" viewBox="0 0 24 24" fill="none" xmlns="http://www.w3.org/2000/svg">
<path d="M21.236 8.02631C21.231 7.88759 21.1751 7.75557 21.079 7.6554C20.9829 7.55523 20.8533 7.49392 20.7149 7.48315C19.7918 7.39869 18.911 7.05657 18.1728 6.49579C17.6249 6.08039 17.1665 5.55857 16.8252 4.96166C16.4838 4.36475 16.2666 3.70504 16.1865 3.0221C16.1753 2.8836 16.1137 2.754 16.0135 2.6578C15.9132 2.5616 15.7812 2.50547 15.6423 2.5H13.4234C13.351 2.49999 13.2794 2.5144 13.2126 2.54241C13.1459 2.57041 13.0855 2.61144 13.0348 2.6631C12.9841 2.71475 12.9442 2.776 12.9175 2.84324C12.8908 2.91049 12.8778 2.98239 12.8792 3.05474V16.3074C12.8754 16.7072 12.7902 17.1021 12.6286 17.4679C12.4671 17.8337 12.2326 18.1627 11.9396 18.4348C11.6466 18.7069 11.3012 18.9164 10.9245 19.0505C10.5478 19.1846 10.1477 19.2405 9.74863 19.2147C9.29285 19.1892 8.84911 19.0588 8.45205 18.8336C8.05498 18.6083 7.71532 18.2944 7.45957 17.9163C7.20382 17.5382 7.03889 17.1061 6.97765 16.6537C6.91641 16.2013 6.96052 15.7409 7.10653 15.3084C7.32872 14.6685 7.76195 14.1232 8.33506 13.762C8.90816 13.4008 9.58705 13.2453 10.2602 13.321C10.3346 13.3287 10.4098 13.3207 10.4809 13.2974C10.552 13.2741 10.6173 13.236 10.6727 13.1858C10.7282 13.1355 10.7724 13.0742 10.8025 13.0057C10.8326 12.9373 10.848 12.8632 10.8476 12.7884V10.1916C10.8476 10.1916 9.90442 10.1253 9.58231 10.1253C8.75695 10.1214 7.94114 10.3018 7.19433 10.6533C6.44753 11.0047 5.78857 11.5184 5.26548 12.1568C4.57027 12.9064 4.07441 13.8185 3.82337 14.8095C3.53395 15.9784 3.59303 17.2065 3.99332 18.3423C4.39361 19.4781 5.11761 20.4719 6.076 21.201C7.17243 22.0465 8.51883 22.5034 9.90337 22.5C10.2199 22.5 10.5342 22.4779 10.8465 22.4337C12.165 22.2381 13.3866 21.6271 14.3339 20.6895C14.9127 20.1216 15.3734 19.4449 15.6896 18.6982C16.0057 17.9516 16.171 17.1497 16.176 16.3389V9.03684C17.4574 10.026 19.0015 10.6165 20.616 10.7347C20.691 10.7393 20.7662 10.7282 20.8368 10.7022C20.9074 10.6762 20.9718 10.6359 21.026 10.5838C21.0802 10.5316 21.123 10.4689 21.1517 10.3994C21.1804 10.3299 21.1944 10.2552 21.1928 10.18V8.02736L21.236 8.02631Z" fill="white"/>
</svg>
