<svg width="24" height="24" viewBox="0 0 24 24" fill="none" xmlns="http://www.w3.org/2000/svg">
<path d="M13.2003 12.2332L9.93359 14.2989V10.1675L13.2003 12.2332Z" fill="white" stroke="white" stroke-width="2.25" stroke-linecap="round" stroke-linejoin="round"/>
<path d="M2 12.9645V11.502C2 8.51183 2 7.01624 2.84467 6.05464C3.69027 5.09202 5.0212 5.0507 7.68213 4.96704C8.94213 4.92779 10.2301 4.8999 11.3333 4.8999C12.4365 4.8999 13.7236 4.92779 14.9845 4.96704C17.6455 5.0507 18.9764 5.09202 19.8211 6.05464C20.6657 7.01727 20.6667 8.51286 20.6667 11.502V12.9635C20.6667 15.9546 20.6667 17.4492 19.822 18.4118C18.9764 19.3734 17.6464 19.4158 14.9845 19.4984C13.7245 19.5387 12.4365 19.5666 11.3333 19.5666C10.2301 19.5666 8.94307 19.5387 7.68213 19.4984C5.0212 19.4158 3.69027 19.3745 2.84467 18.4118C1.99907 17.4492 2 15.9536 2 12.9645Z" stroke="white" stroke-width="2"/>
</svg>
